<mxfile host="app.diagrams.net" modified="2024-01-13T10:58:27.880Z" agent="Mozilla/5.0 (Windows NT 10.0; Win64; x64; rv:121.0) Gecko/20100101 Firefox/121.0" etag="Fz8oBzr9QOAnFYGlJ9VR" version="22.1.18" type="github">
  <diagram name="Pagina-1" id="PJHqQeVscJE3fAsvbVZz">
    <mxGraphModel dx="1039" dy="543" grid="1" gridSize="10" guides="1" tooltips="1" connect="1" arrows="1" fold="1" page="1" pageScale="1" pageWidth="827" pageHeight="1169" math="0" shadow="0">
      <root>
        <mxCell id="0" />
        <mxCell id="1" parent="0" />
      </root>
    </mxGraphModel>
  </diagram>
</mxfile>
